{"accessors":[{"bufferView":0,"componentType":5125,"count":13488,"max":[4447.0],"min":[0.0],"type":"SCALAR"},{"bufferView":1,"componentType":5126,"count":4448,"max":[0.05000000074505806,0.06698901951313019,0.13399769365787507],"min":[-0.06698847562074661,-0.06698901951313019,0.0],"type":"VEC3"},{"bufferView":2,"componentType":5126,"count":4448,"max":[1.0,1.0,1.0],"min":[-1.0,-1.0,-1.0],"type":"VEC3"},{"bufferView":3,"componentType":5125,"count":2706,"max":[1000.0],"min":[0.0],"type":"SCALAR"},{"bufferView":4,"componentType":5126,"count":1001,"max":[0.026000000536441804,0.025984160602092744,0.07000000029802323],"min":[-0.026000000536441804,-0.025984160602092744,0.0],"type":"VEC3"},{"bufferView":5,"componentType":5126,"count":1001,"max":[1.0,0.9993908405303955,1.0],"min":[-1.0,-0.9993908405303955,-1.0],"type":"VEC3"},{"bufferView":6,"componentType":5125,"count":10800,"max":[2955.0],"min":[0.0],"type":"SCALAR"},{"bufferView":7,"componentType":5126,"count":2956,"max":[0.025994297116994859,0.0024999999441206457,0.026000000536441804],"min":[-0.025994297116994859,-0.0024999999441206457,-0.02597719430923462],"type":"VEC3"},{"bufferView":8,"componentType":5126,"count":2956,"max":[0.9997806549072266,1.0,1.0],"min":[-0.9997806549072266,-1.0,-1.0],"type":"VEC3"},{"bufferView":9,"componentType":5125,"count":2508,"max":[954.0],"min":[0.0],"type":"SCALAR"},{"bufferView":10,"componentType":5126,"count":955,"max":[0.03500000014901161,0.03496265411376953,0.0],"min":[-0.03496265411376953,-0.03500000014901161,-0.09799999743700028],"type":"VEC3"},{"bufferView":11,"componentType":5126,"count":955,"max":[1.0,1.0,1.0],"min":[-1.0,-1.0,-1.0],"type":"VEC3"},{"bufferView":12,"componentType":5125,"count":2922,"max":[1137.0],"min":[0.0],"type":"SCALAR"},{"bufferView":13,"componentType":5126,"count":1138,"max":[0.029999999329447748,0.029999999329447748,0.03200000151991844],"min":[-0.029999999329447748,-0.029999999329447748,0.0],"type":"VEC3"},{"bufferView":14,"componentType":5126,"count":1138,"max":[1.0,1.0,1.0],"min":[-1.0,-1.0,-1.0],"type":"VEC3"},{"bufferView":15,"componentType":5125,"count":882,"max":[307.0],"min":[0.0],"type":"SCALAR"},{"bufferView":16,"componentType":5126,"count":308,"max":[0.006500000134110451,0.006490467116236687,0.05999999865889549],"min":[-0.006500000134110451,-0.006490467116236687,0.0],"type":"VEC3"},{"bufferView":17,"componentType":5126,"count":308,"max":[1.0,0.9985334277153015,1.0],"min":[-1.0,-0.9985334277153015,-1.0],"type":"VEC3"},{"bufferView":18,"componentType":5125,"count":732,"max":[287.0],"min":[0.0],"type":"SCALAR"},{"bufferView":19,"componentType":5126,"count":288,"max":[0.05000000074505806,0.009999999776482582,0.019999999552965165],"min":[-0.07999999821186066,-0.02500000037252903,-6.938893903907229e-18],"type":"VEC3"},{"bufferView":20,"componentType":5126,"count":288,"max":[1.0,1.0,1.0],"min":[-1.0,-1.0,-1.0],"type":"VEC3"},{"bufferView":21,"componentType":5125,"count":1284,"max":[502.0],"min":[0.0],"type":"SCALAR"},{"bufferView":22,"componentType":5126,"count":503,"max":[0.007000000216066837,0.006948962341994047,0.0820000022649765],"min":[-0.007000000216066837,-0.006948962341994047,0.0],"type":"VEC3"},{"bufferView":23,"componentType":5126,"count":503,"max":[1.0,1.0,1.0],"min":[-1.0,-1.0,-1.0],"type":"VEC3"},{"bufferView":24,"componentType":5125,"count":1620,"max":[607.0],"min":[0.0],"type":"SCALAR"},{"bufferView":25,"componentType":5126,"count":608,"max":[0.012000000104308129,0.010392304509878159,6.938893903907229e-18],"min":[-0.012000000104308129,-0.010392304509878159,-0.00800000037997961],"type":"VEC3"},{"bufferView":26,"componentType":5126,"count":608,"max":[1.0,1.0,1.0],"min":[-1.0,-1.0,-1.0],"type":"VEC3"},{"bufferView":27,"componentType":5125,"count":77334,"max":[18728.0],"min":[0.0],"type":"SCALAR"},{"bufferView":28,"componentType":5126,"count":18729,"max":[0.01599811017513275,0.032499998807907107,0.01599777862429619],"min":[-0.01599900797009468,-0.0005000000237487257,-0.01599777676165104],"type":"VEC3"},{"bufferView":29,"componentType":5126,"count":18729,"max":[0.9999260306358337,1.0,1.0],"min":[-1.0,-1.0,-1.0],"type":"VEC3"}],"asset":{"generator":"SimLab GLTF","version":"2.0"},"bufferViews":[{"buffer":0,"byteLength":53952,"target":34963},{"buffer":0,"byteLength":53376,"byteOffset":53952,"byteStride":12,"target":34962},{"buffer":0,"byteLength":53376,"byteOffset":107328,"byteStride":12,"target":34962},{"buffer":0,"byteLength":10824,"byteOffset":160704,"target":34963},{"buffer":0,"byteLength":12012,"byteOffset":171528,"byteStride":12,"target":34962},{"buffer":0,"byteLength":12012,"byteOffset":183540,"byteStride":12,"target":34962},{"buffer":0,"byteLength":43200,"byteOffset":195552,"target":34963},{"buffer":0,"byteLength":35472,"byteOffset":238752,"byteStride":12,"target":34962},{"buffer":0,"byteLength":35472,"byteOffset":274224,"byteStride":12,"target":34962},{"buffer":0,"byteLength":10032,"byteOffset":309696,"target":34963},{"buffer":0,"byteLength":11460,"byteOffset":319728,"byteStride":12,"target":34962},{"buffer":0,"byteLength":11460,"byteOffset":331188,"byteStride":12,"target":34962},{"buffer":0,"byteLength":11688,"byteOffset":342648,"target":34963},{"buffer":0,"byteLength":13656,"byteOffset":354336,"byteStride":12,"target":34962},{"buffer":0,"byteLength":13656,"byteOffset":367992,"byteStride":12,"target":34962},{"buffer":0,"byteLength":3528,"byteOffset":381648,"target":34963},{"buffer":0,"byteLength":3696,"byteOffset":385176,"byteStride":12,"target":34962},{"buffer":0,"byteLength":3696,"byteOffset":388872,"byteStride":12,"target":34962},{"buffer":0,"byteLength":2928,"byteOffset":392568,"target":34963},{"buffer":0,"byteLength":3456,"byteOffset":395496,"byteStride":12,"target":34962},{"buffer":0,"byteLength":3456,"byteOffset":398952,"byteStride":12,"target":34962},{"buffer":0,"byteLength":5136,"byteOffset":402408,"target":34963},{"buffer":0,"byteLength":6036,"byteOffset":407544,"byteStride":12,"target":34962},{"buffer":0,"byteLength":6036,"byteOffset":413580,"byteStride":12,"target":34962},{"buffer":0,"byteLength":6480,"byteOffset":419616,"target":34963},{"buffer":0,"byteLength":7296,"byteOffset":426096,"byteStride":12,"target":34962},{"buffer":0,"byteLength":7296,"byteOffset":433392,"byteStride":12,"target":34962},{"buffer":0,"byteLength":309336,"byteOffset":440688,"target":34963},{"buffer":0,"byteLength":224748,"byteOffset":750024,"byteStride":12,"target":34962},{"buffer":0,"byteLength":224748,"byteOffset":974772,"byteStride":12,"target":34962}],"buffers":[{"byteLength":1199520,"uri":"trex.bin"}],"extensionsUsed":["KHR_materials_pbrSpecularGlossiness"],"materials":[{"extensions":{"KHR_materials_pbrSpecularGlossiness":{"diffuseFactor":[0.0,1.0,0.501960813999176,1.0],"specularFactor":[0.0,1.0,0.501960813999176],"glossinessFactor":0.5}},"name":"Mtl1","alphaMode":"MASK","doubleSided":true,"pbrMetallicRoughness":{"baseColorFactor":[0.0,1.0,0.501960813999176,1.0],"metallicFactor":0.5,"roughnessFactor":0.5}},{"extensions":{"KHR_materials_pbrSpecularGlossiness":{"diffuseFactor":[1.0,0.7254902124404907,1.0,1.0],"specularFactor":[1.0,0.7254902124404907,1.0],"glossinessFactor":0.5}},"name":"Mtl3","alphaMode":"MASK","doubleSided":true,"pbrMetallicRoughness":{"baseColorFactor":[1.0,0.7254902124404907,1.0,1.0],"metallicFactor":0.5,"roughnessFactor":0.5}},{"extensions":{"KHR_materials_pbrSpecularGlossiness":{"diffuseFactor":[0.7529411911964417,0.7529411911964417,0.7529411911964417,1.0],"specularFactor":[0.7529411911964417,0.7529411911964417,0.7529411911964417],"glossinessFactor":0.5}},"name":"Mtl4","alphaMode":"MASK","doubleSided":true,"pbrMetallicRoughness":{"baseColorFactor":[0.7529411911964417,0.7529411911964417,0.7529411911964417,1.0],"metallicFactor":0.5,"roughnessFactor":0.5}},{"extensions":{"KHR_materials_pbrSpecularGlossiness":{"diffuseFactor":[0.0,1.0,0.501960813999176,1.0],"specularFactor":[0.0,1.0,0.501960813999176],"glossinessFactor":0.5}},"name":"Mtl6","alphaMode":"MASK","doubleSided":true,"pbrMetallicRoughness":{"baseColorFactor":[0.0,1.0,0.501960813999176,1.0],"metallicFactor":0.5,"roughnessFactor":0.5}},{"extensions":{"KHR_materials_pbrSpecularGlossiness":{"diffuseFactor":[0.0,1.0,0.501960813999176,1.0],"specularFactor":[0.0,1.0,0.501960813999176],"glossinessFactor":0.5}},"name":"Mtl8","alphaMode":"MASK","doubleSided":true,"pbrMetallicRoughness":{"baseColorFactor":[0.0,1.0,0.501960813999176,1.0],"metallicFactor":0.5,"roughnessFactor":0.5}},{"extensions":{"KHR_materials_pbrSpecularGlossiness":{"diffuseFactor":[0.0,1.0,0.501960813999176,1.0],"specularFactor":[0.0,1.0,0.501960813999176],"glossinessFactor":0.5}},"name":"Mtla","alphaMode":"MASK","doubleSided":true,"pbrMetallicRoughness":{"baseColorFactor":[0.0,1.0,0.501960813999176,1.0],"metallicFactor":0.5,"roughnessFactor":0.5}},{"extensions":{"KHR_materials_pbrSpecularGlossiness":{"diffuseFactor":[1.0,1.0,0.501960813999176,1.0],"specularFactor":[1.0,1.0,0.501960813999176],"glossinessFactor":0.5}},"name":"Mtl10","alphaMode":"MASK","doubleSided":true,"pbrMetallicRoughness":{"baseColorFactor":[1.0,1.0,0.501960813999176,1.0],"metallicFactor":0.5,"roughnessFactor":0.5}},{"extensions":{"KHR_materials_pbrSpecularGlossiness":{"diffuseFactor":[1.0,1.0,0.501960813999176,1.0],"specularFactor":[1.0,1.0,0.501960813999176],"glossinessFactor":0.5}},"name":"Mtl12","alphaMode":"MASK","doubleSided":true,"pbrMetallicRoughness":{"baseColorFactor":[1.0,1.0,0.501960813999176,1.0],"metallicFactor":0.5,"roughnessFactor":0.5}},{"extensions":{"KHR_materials_pbrSpecularGlossiness":{"diffuseFactor":[1.0,1.0,0.501960813999176,1.0],"specularFactor":[1.0,1.0,0.501960813999176],"glossinessFactor":0.5}},"name":"Mtl14","alphaMode":"MASK","doubleSided":true,"pbrMetallicRoughness":{"baseColorFactor":[1.0,1.0,0.501960813999176,1.0],"metallicFactor":0.5,"roughnessFactor":0.5}},{"extensions":{"KHR_materials_pbrSpecularGlossiness":{"diffuseFactor":[0.7529411911964417,0.7529411911964417,0.7529411911964417,1.0],"specularFactor":[0.7529411911964417,0.7529411911964417,0.7529411911964417],"glossinessFactor":0.5}},"name":"Mtl15","alphaMode":"MASK","doubleSided":true,"pbrMetallicRoughness":{"baseColorFactor":[0.7529411911964417,0.7529411911964417,0.7529411911964417,1.0],"metallicFactor":0.5,"roughnessFactor":0.5}}],"meshes":[{"primitives":[{"attributes":{"NORMAL":2,"POSITION":1},"indices":0,"material":0,"mode":4}]},{"primitives":[{"attributes":{"NORMAL":5,"POSITION":4},"indices":3,"material":1,"mode":4}]},{"primitives":[{"attributes":{"NORMAL":8,"POSITION":7},"indices":6,"material":2,"mode":4}]},{"primitives":[{"attributes":{"NORMAL":11,"POSITION":10},"indices":9,"material":3,"mode":4}]},{"primitives":[{"attributes":{"NORMAL":14,"POSITION":13},"indices":12,"material":4,"mode":4}]},{"primitives":[{"attributes":{"NORMAL":17,"POSITION":16},"indices":15,"material":5,"mode":4}]},{"primitives":[{"attributes":{"NORMAL":20,"POSITION":19},"indices":18,"material":6,"mode":4}]},{"primitives":[{"attributes":{"NORMAL":23,"POSITION":22},"indices":21,"material":7,"mode":4}]},{"primitives":[{"attributes":{"NORMAL":26,"POSITION":25},"indices":24,"material":8,"mode":4}]},{"primitives":[{"attributes":{"NORMAL":29,"POSITION":28},"indices":27,"material":9,"mode":4}]}],"nodes":[{"children":[1,2,4,6,8,10,12,14,16,18,20],"matrix":[1.0,0.0,0.0,0.0,0.0,4.4896593387466768e-11,-1.0,0.0,0.0,1.0,4.4896593387466768e-11,0.0,0.0,0.0,0.0,1.0]},{"name":"Camera-1","rotation":[-0.7071067690849304,0.0,0.0,-0.7071067690849304],"translation":[-0.03377954661846161,-0.7439917922019959,0.0]},{"name":"Socle bride-1","children":[3],"rotation":[-0.7071067690849304,0.0,0.0,-0.7071067690849304]},{"name":"Body_1","mesh":0,"rotation":[0.0,0.0,0.0,-1.0]},{"name":"Piston 3-1","children":[5],"rotation":[-0.5898218154907227,0.3900131285190582,-0.3900131285190582,-0.5898218154907227],"translation":[9.999999974752428e-7,-0.04500000178813934,2.755455252880505e-18]},{"name":"Body_1","mesh":1,"rotation":[0.0,0.0,0.0,-1.0]},{"name":"Joint thorique 8-1","children":[7],"rotation":[1.0,-8.499665442559745e-24,-5.5525493536379147e-8,1.5307680007942203e-16],"translation":[9.999999974752428e-7,-0.05550000071525574,3.3983948256723e-18]},{"name":"Body_1","mesh":2,"rotation":[0.0,0.0,0.0,-1.0]},{"name":"Chemise 2-1","children":[9],"rotation":[-0.7071067690849304,0.0,0.0,-0.7071067690849304],"translation":[9.999999974752428e-7,-0.1080000028014183,6.613092689631274e-18]},{"name":"Body_1","mesh":3,"rotation":[0.0,0.0,0.0,-1.0]},{"name":"couvercle 6-1","children":[11],"rotation":[0.7071067690849304,-1.962615539765984e-17,1.962615539765984e-17,-0.7071067690849304],"translation":[9.999999974752428e-7,-0.10700000077486038,5.4416374381821448e-18]},{"name":"Body_1","mesh":4,"rotation":[0.0,0.0,0.0,-1.0]},{"name":"Axe 5-1","children":[13],"rotation":[1.0,0.0,0.0,9.184648900574806e-17],"translation":[-0.05299999937415123,-0.11999999731779099,0.029999999329447748]},{"name":"Body_1","mesh":5,"rotation":[0.0,0.0,0.0,-1.0]},{"name":"Levier 4-1","children":[15],"rotation":[0.9998213052749634,-0.018904661759734155,1.966023159930233e-16,1.4938680692382708e-16],"translation":[-0.03723825141787529,-0.12660054862499238,0.009999999776482582]},{"name":"Body_1","mesh":6,"rotation":[0.0,0.0,0.0,-1.0]},{"name":"Vis d_appui 10-1","children":[17],"rotation":[0.5539761781692505,0.4394432604312897,0.4600708782672882,-0.5369681715965271],"translation":[-0.10106267780065537,-0.14720255136489869,4.923925606864396e-17]},{"name":"Body_1","mesh":7,"rotation":[0.0,0.0,0.0,-1.0]},{"name":"Ecrou 9-1","children":[19],"rotation":[-0.7069804072380066,0.013367614708840847,0.013367614708840847,-0.7069804072380066],"translation":[-0.1004200354218483,-0.13021470606327058,2.701152169155379e-17]},{"name":"Body_1","mesh":8,"rotation":[0.0,0.0,0.0,-1.0]},{"name":"ressort-1","children":[21],"rotation":[1.0,-6.776264239778893e-17,-5.5525493536379147e-8,9.184648238830316e-17],"translation":[9.999999974752428e-7,-0.06650000065565109,-2.05108118278955e-18]},{"name":"Body_1","mesh":9,"rotation":[0.0,0.0,0.0,-1.0]}],"scene":0,"scenes":[{"nodes":[0]}]}